<svg viewBox="0 0 1200 630" xmlns="http://www.w3.org/2000/svg" font-family="'Helvetica Neue', Arial, sans-serif">
  <defs>
    <linearGradient id="bg" x1="0" y1="0" x2="1" y2="1">
      <stop offset="0" stop-color="#0A2024"/><stop offset="1" stop-color="#071517"/>
    </linearGradient>
    <radialGradient id="glow" cx="0.82" cy="0.12" r="0.7">
      <stop offset="0" stop-color="#2ABFB4" stop-opacity="0.55"/><stop offset="0.5" stop-color="#10B0A6" stop-opacity="0.12"/><stop offset="1" stop-color="#10B0A6" stop-opacity="0"/>
    </radialGradient>
    <linearGradient id="badge" x1="0" y1="0" x2="0" y2="1"><stop offset="0" stop-color="#22CDC1"/><stop offset="1" stop-color="#0A857F"/></linearGradient>
    <linearGradient id="gloss" x1="0" y1="0" x2="0" y2="1"><stop offset="0" stop-color="#fff" stop-opacity="0.4"/><stop offset="0.55" stop-color="#fff" stop-opacity="0"/></linearGradient>
    <linearGradient id="panel" x1="0" y1="0" x2="0.2" y2="1"><stop offset="0" stop-color="#1FC9BD"/><stop offset="1" stop-color="#063F3C"/></linearGradient>
    <linearGradient id="streak" x1="0" y1="0" x2="1" y2="1"><stop offset="0" stop-color="#fff" stop-opacity="0"/><stop offset=".5" stop-color="#fff" stop-opacity=".5"/><stop offset="1" stop-color="#fff" stop-opacity="0"/></linearGradient>
  </defs>

  <rect width="1200" height="630" fill="url(#bg)"/>
  <rect width="1200" height="630" fill="url(#glow)"/>
  <g fill="#fff" opacity="0.05"><circle cx="0" cy="0" r="0"/></g>

  <!-- glossy panel accent (right) -->
  <g transform="translate(905 95)">
    <rect width="250" height="440" rx="28" fill="url(#panel)"/>
    <rect width="250" height="200" rx="28" fill="#E9FFFB" opacity="0.22"/>
    <g transform="rotate(-20 125 220)"><rect x="40" y="-120" width="46" height="680" fill="url(#streak)"/><rect x="120" y="-120" width="20" height="680" fill="url(#streak)" opacity=".7"/></g>
    <rect x="150" y="180" width="78" height="26" rx="13" fill="#0C5E59"/>
    <rect x="156" y="185" width="62" height="13" rx="6.5" fill="#37C2B6"/>
    <path d="M70 90 C76 104 81 109 95 117 C81 125 76 130 70 144 C64 130 59 125 45 117 C59 109 64 104 70 90 Z" fill="#fff"/>
    <circle cx="180" cy="320" r="6" fill="#fff"/>
  </g>

  <!-- emblem -->
  <g transform="translate(90 86) scale(1.85)">
    <rect x="2" y="2" width="60" height="60" rx="18" fill="url(#badge)"/>
    <rect x="2" y="2" width="60" height="34" rx="18" fill="url(#gloss)"/>
    <g fill="#fff"><rect x="11" y="35" width="42" height="9" rx="4.5"/><path d="M21 35 L25.5 27.6 Q26.2 26.5 27.6 26.5 L37.4 26.5 Q39 26.5 39.9 27.8 L44 35 Z"/></g>
    <path d="M26.4 34 L29.2 29.2 Q29.5 28.7 30.1 28.7 L33 28.7 L33 34 Z" fill="#0B8F88"/>
    <path d="M35 34 L35 28.7 L36.6 28.7 Q37.3 28.7 37.7 29.4 L40.4 34 Z" fill="#0B8F88"/>
    <circle cx="21" cy="44" r="5.4" fill="#fff"/><circle cx="21" cy="44" r="2.3" fill="#0A857F"/>
    <circle cx="43" cy="44" r="5.4" fill="#fff"/><circle cx="43" cy="44" r="2.3" fill="#0A857F"/>
    <path d="M47 12 C48 17 49.6 18.6 54.6 19.6 C49.6 20.6 48 22.2 47 27.2 C46 22.2 44.4 20.6 39.4 19.6 C44.4 18.6 46 17 47 12 Z" fill="#EBFFFB"/>
  </g>

  <text x="92" y="300" fill="#ffffff" font-size="92" font-weight="800" letter-spacing="-3">MARTIN&#8217;S</text>
  <text x="96" y="352" fill="#5FD6CE" font-size="34" font-weight="700" letter-spacing="13">AUTO DETAILING</text>

  <text x="92" y="446" fill="#2ABFB4" font-size="50" font-weight="800" font-style="italic" letter-spacing="-1">“We come to you.”</text>

  <text x="92" y="512" fill="#9fbdba" font-size="27" font-weight="600">Auto detailing · Home &amp; exterior cleaning · Handyman help</text>
  <text x="92" y="556" fill="#ffffff" font-size="30" font-weight="800">508-202-3659  ·  MetroWest, MA</text>
</svg>
